<?xml version="1.0" encoding="UTF-8"?>
<svg version="1.1" xmlns="http://www.w3.org/2000/svg" width="524" height="570">
<path d="M0 0 C172.92 0 345.84 0 524 0 C524 188.1 524 376.2 524 570 C351.08 570 178.16 570 0 570 C0 381.9 0 193.8 0 0 Z " fill="#010101" transform="translate(0,0)"/>
<path d="M0 0 C2.37927955 0.82944181 4.7723298 1.61064165 7.16650391 2.39599609 C85.48131346 28.2985331 85.48131346 28.2985331 102.25 54 C106.07719791 59.73397525 109.92573375 65.39169744 114.1875 70.8125 C118.06454302 75.75777205 121.80023687 80.77213276 125.38037109 85.93554688 C127.22890192 88.59157454 129.04622749 91.05076118 131.23046875 93.44921875 C139.41124858 102.73509454 140.18472678 115.19500539 142 127 C142.18546387 128.19125488 142.37092773 129.38250977 142.56201172 130.60986328 C143.80740138 138.72719343 144.93778993 146.85681919 146 155 C146.11472656 155.87221191 146.22945313 156.74442383 146.34765625 157.64306641 C148.6259507 175.1880966 149.27070314 192.63465348 149.3125 210.3125 C149.31511841 211.37459686 149.31773682 212.43669373 149.32043457 213.53097534 C149.32470018 229.69658579 148.63190554 245.1823919 145 261 C144.76772705 262.07435303 144.76772705 262.07435303 144.53076172 263.17041016 C143.57296669 267.52662743 142.35807507 271.75317663 141 276 C140.78037598 276.70624512 140.56075195 277.41249023 140.33447266 278.14013672 C119.62030273 344.01316052 70.79690968 406.72639994 9.25732422 439.09838867 C-17.9499401 453.01307445 -45.53149398 456.7848297 -75 447.75 C-89.58901036 443.03218758 -103.17637485 436.64569296 -116.61376953 429.30273438 C-118.98520472 428.00807731 -121.36503367 426.72997523 -123.74609375 425.453125 C-142.69166339 415.21458208 -158.96662346 403.33883665 -172 386 C-172.39783691 385.47712402 -172.79567383 384.95424805 -173.20556641 384.41552734 C-192.24414663 359.25607701 -204.36391053 329.7148208 -211 299 C-211.19899902 298.13584473 -211.39799805 297.27168945 -211.60302734 296.38134766 C-219.40243514 261.39579768 -215.30500431 223.67695951 -213.1875 188.1875 C-213.14603851 187.48638721 -213.10457703 186.78527443 -213.06185913 186.0629158 C-212.15029811 170.70739082 -211.04984588 155.36663136 -209.61328125 140.05078125 C-209.51226608 138.86703415 -209.41125092 137.68328705 -209.30717468 136.46366882 C-208.42100295 127.60046784 -206.15964814 120.57375244 -200.93359375 113.30859375 C-200.37075684 112.51654541 -199.80791992 111.72449707 -199.22802734 110.90844727 C-198.34171631 109.68532837 -198.34171631 109.68532837 -197.4375 108.4375 C-196.18811873 106.68538291 -194.93943021 104.93277166 -193.69140625 103.1796875 C-193.07152832 102.31311523 -192.45165039 101.44654297 -191.81298828 100.55371094 C-188.66305595 96.11682806 -185.6071638 91.6158188 -182.55249023 87.11303711 C-179.24089357 82.26194647 -175.96526577 77.61660558 -171.4375 73.8125 C-168.12225442 70.98226257 -164.89325267 68.07887211 -161.6875 65.125 C-157.27781527 61.1074213 -152.76577023 57.27334396 -148.12109375 53.53125 C-145.77711049 51.64195502 -143.46463263 49.71852648 -141.16015625 47.78125 C-131.80120042 39.93698756 -122.19444083 32.60113111 -112.21435547 25.56591797 C-110.05181138 24.03663927 -107.90155254 22.4915159 -105.75390625 20.94140625 C-98.32423958 15.60092832 -90.78265925 10.47491312 -83.0625 5.5625 C-81.92760132 4.8363147 -81.92760132 4.8363147 -80.76977539 4.09545898 C-54.12161522 -12.64807528 -28.54672191 -12.33934452 0 0 Z " fill="#F5F5F5" transform="translate(298,65)"/>
<path d="M0 0 C3.73286378 3.46936752 5.45806092 7.57238889 7.125 12.3125 C7.47949219 13.15167969 7.83398438 13.99085938 8.19921875 14.85546875 C12.93526766 32.54071466 8.28583836 52.27296572 3.125 69.3125 C2.88475098 70.10978516 2.64450195 70.90707031 2.39697266 71.72851562 C-8.68203705 107.4510692 -29.45253157 142.69895855 -56.34863281 168.76464844 C-58.08838981 170.47147764 -58.08838981 170.47147764 -60.1875 173.25 C-60.744375 173.930625 -61.30125 174.61125 -61.875 175.3125 C-62.535 175.3125 -63.195 175.3125 -63.875 175.3125 C-63.875 175.9725 -63.875 176.6325 -63.875 177.3125 C-65.1328125 178.6171875 -65.1328125 178.6171875 -67 180.1875 C-69.69079851 182.46214689 -72.36842599 184.74271558 -74.99609375 187.08984375 C-94.8856439 204.72785536 -121.69252902 222.30345009 -149.33984375 221.55859375 C-158.70248393 220.64973962 -167.45919152 217.53030434 -173.66015625 210.203125 C-181.84190586 198.54362925 -183.18961509 185.6177454 -181.4140625 171.69921875 C-174.64665837 134.63772907 -152.99400202 101.53093636 -128.875 73.3125 C-128.39063477 72.73935059 -127.90626953 72.16620117 -127.40722656 71.57568359 C-120.93458817 63.92203764 -114.3289138 56.54766007 -107.1171875 49.58203125 C-104.85484436 47.40420572 -104.85484436 47.40420572 -103.1953125 45.01171875 C-102.75960937 44.45097656 -102.32390625 43.89023437 -101.875 43.3125 C-101.215 43.3125 -100.555 43.3125 -99.875 43.3125 C-99.545 42.3225 -99.215 41.3325 -98.875 40.3125 C-98.215 40.3125 -97.555 40.3125 -96.875 40.3125 C-96.875 39.6525 -96.875 38.9925 -96.875 38.3125 C-95.51171875 36.9375 -95.51171875 36.9375 -93.5625 35.3125 C-90.18891308 32.45382897 -86.92381652 29.51328591 -83.6875 26.5 C-63.41969256 8.09749901 -27.20407208 -20.64748811 0 0 Z " fill="#F9F9F9" transform="translate(413.875,275.6875)"/>
<path d="M0 0 C0.65790527 0.2151123 1.31581055 0.43022461 1.99365234 0.65185547 C8.03842285 2.65139442 14.02035945 4.8146308 20 7 C21.64427979 7.59627197 21.64427979 7.59627197 23.32177734 8.20458984 C40.96767036 14.63268387 58.11803888 21.74962672 75 30 C75.95310059 30.4635791 76.90620117 30.9271582 77.88818359 31.40478516 C80.54088074 32.70713691 83.17931979 34.03369004 85.8125 35.375 C86.5770752 35.755354 87.34165039 36.13570801 88.12939453 36.52758789 C93.48044453 39.33008282 97.23681997 42.47363994 100 48 C100.14832685 49.74569287 100.22128283 51.49825237 100.25 53.25 C100.28867187 54.64992188 100.28867187 54.64992188 100.328125 56.078125 C98.75039182 70.12746333 78.42552443 85.45252925 68.09765625 94.1796875 C65.85270995 96.12781594 63.69262012 98.15666774 61.52978516 100.19506836 C54.89424783 106.4302022 47.96844553 112.11858364 40.74414062 117.65429688 C39.04109471 118.96829311 37.35405112 120.30004781 35.671875 121.640625 C32.13752109 124.4570552 28.57480634 127.23514489 25 130 C24.24992676 130.58281738 23.49985352 131.16563477 22.72705078 131.76611328 C8.5968862 142.68500691 -2.74528176 150.09038337 -21.0625 150.3125 C-21.83271484 150.34150391 -22.60292969 150.37050781 -23.39648438 150.40039062 C-35.12755119 150.52508717 -46.09414332 145.35593696 -56.75 140.9375 C-57.90669189 140.46143311 -59.06338379 139.98536621 -60.25512695 139.49487305 C-77.02514338 132.5532373 -93.76885992 125.48214308 -109.87744141 117.09814453 C-112.35136813 115.81821327 -114.83790486 114.56428562 -117.32421875 113.30859375 C-119.19574003 112.35239882 -121.06683724 111.39537342 -122.9375 110.4375 C-124.23445801 109.78491211 -124.23445801 109.78491211 -125.55761719 109.11914062 C-142.42167684 100.39119305 -142.42167684 100.39119305 -145 93 C-145.91064942 86.97087283 -145.44544449 82.15238483 -141.87890625 77.1328125 C-137.653907 72.33686741 -132.81648309 68.18515893 -128 64 C-127.37907471 63.4527124 -126.75814941 62.9054248 -126.1184082 62.34155273 C-105.34244979 44.04395115 -83.27221537 27.00953865 -60 12 C-59.37883301 11.59120605 -58.75766602 11.18241211 -58.11767578 10.76123047 C-39.68818481 -1.3513598 -21.74587415 -7.1293759 0 0 Z " fill="#FDFDFD" transform="translate(279,77)"/>
<path d="M0 0 C4.97105213 27.19014879 7.38275562 54.50066046 7.4375 82.125 C7.44349213 83.12203949 7.44948425 84.11907898 7.45565796 85.14633179 C7.53115239 103.94444604 5.56968898 121.99575595 0 140 C-0.23702637 140.77923828 -0.47405273 141.55847656 -0.71826172 142.36132812 C-18.00573746 198.57546769 -54.1942236 248.58081609 -101 284 C-101.55381348 284.42667969 -102.10762695 284.85335938 -102.67822266 285.29296875 C-112.46750404 292.80762231 -122.9289509 298.58203507 -134 304 C-135.03640625 304.515625 -136.0728125 305.03125 -137.140625 305.5625 C-153.50031804 313.04121682 -172.74694641 317.23277843 -190.05859375 311.25390625 C-198.79299948 307.53047432 -205.56638692 300.73005261 -209.2890625 291.96484375 C-220.40798536 259.68797056 -203.94668107 224.9060002 -190 196 C-188.41645418 192.8105038 -186.82356664 189.62601754 -185.22489929 186.4440918 C-181.03702359 178.10167804 -176.95766718 169.70676316 -172.875 161.3125 C-172.03768827 159.59228066 -171.20036717 157.87206589 -170.36303711 156.15185547 C-165.99174952 147.16829965 -161.6258293 138.18213974 -157.28344727 129.18457031 C-156.14695145 126.83386681 -155.0056023 124.48550285 -153.85913086 122.13964844 C-151.08073202 116.43363668 -148.41959632 110.70936296 -145.9296875 104.87109375 C-137.82838484 86.19217666 -137.82838484 86.19217666 -130.75 82.875 C-128.51431675 82.20057774 -126.26273976 81.57717741 -124 81 C-121.41615821 80.00982653 -118.89920422 78.88237656 -116.375 77.75 C-115.70710449 77.45931641 -115.03920898 77.16863281 -114.35107422 76.86914062 C-93.60489418 67.76607507 -73.56864535 55.92927899 -55 43 C-53.46636343 41.95280625 -51.932487 40.90596374 -50.3984375 39.859375 C-39.50587382 32.38200962 -29.08760432 24.52946224 -19 16 C-18.02015137 15.17459717 -18.02015137 15.17459717 -17.02050781 14.33251953 C-9.65959034 8.20123404 -9.65959034 8.20123404 -2.671875 1.66015625 C-1 0 -1 0 0 0 Z M-100 107 C-101.40997398 108.25754436 -102.82634029 109.50797042 -104.25 110.75 C-105.20132813 111.58337891 -105.20132813 111.58337891 -106.171875 112.43359375 C-107.91996376 113.93142194 -109.70382331 115.37304064 -111.5 116.8125 C-112.325 117.534375 -113.15 118.25625 -114 119 C-114 119.66 -114 120.32 -114 121 C-115.485 121.495 -115.485 121.495 -117 122 C-117 122.66 -117 123.32 -117 124 C-117.59425781 124.25652344 -118.18851562 124.51304687 -118.80078125 124.77734375 C-121.21062253 126.11709565 -122.44871988 127.4373243 -124.1875 129.5625 C-126.78678189 132.64395146 -129.48183217 135.50516786 -132.375 138.3125 C-136.47064193 142.35963179 -140.10798599 146.6477372 -143.69921875 151.14453125 C-145.21194416 153.02195447 -146.75579175 154.87479414 -148.33203125 156.69921875 C-173.91441953 186.33180744 -201.34729295 229.22665203 -199 270 C-197.59246949 279.8527136 -194.07494539 289.08066744 -186.125 295.4375 C-175.79921463 302.42665492 -164.46623545 303.19763485 -152.5 300.9375 C-128.65744738 295.37164895 -109.29998433 282.35149829 -90.97265625 266.55859375 C-89.20236157 265.03488414 -87.42197843 263.52258645 -85.62109375 262.03515625 C-84.04463875 260.7325904 -82.51474564 259.37383907 -81 258 C-81 257.34 -81 256.68 -81 256 C-80.34 256 -79.68 256 -79 256 C-77.43135918 254.4492093 -77.43135918 254.4492093 -75.8125 252.4375 C-73.49389974 249.70212655 -71.14762648 247.10933027 -68.5625 244.625 C-55.14940242 231.33034037 -44.19616331 214.43509009 -35 198 C-34.60748047 197.30922363 -34.21496094 196.61844727 -33.81054688 195.90673828 C-23.02284783 176.78891822 -14.69772353 156.46835311 -10 135 C-9.81743652 134.24041992 -9.63487305 133.48083984 -9.44677734 132.69824219 C-7.89532866 125.82655408 -7.63322107 119.15401414 -7.625 112.125 C-7.60050781 111.03058594 -7.57601562 109.93617188 -7.55078125 108.80859375 C-7.51332507 98.25843678 -9.54060243 88.40584996 -17.06640625 80.62109375 C-42.86796 58.98948808 -81.08560891 89.05380443 -100 107 Z " fill="#050505" transform="translate(431,195)"/>
<path d="M0 0 C4.22283814 1.40761271 5.60120714 4.48919937 7.9375 8.0625 C12.4465175 14.80876942 17.17009695 21.3365151 22.11499023 27.76977539 C22.59395752 28.39746826 23.0729248 29.02516113 23.56640625 29.671875 C23.98865479 30.2194043 24.41090332 30.76693359 24.84594727 31.33105469 C28.36173952 36.41545406 28.87994844 40.92285611 28 47 C23.86392657 57.32171896 13.34893998 64.31851591 5 71 C4.24203125 71.62519531 3.4840625 72.25039062 2.703125 72.89453125 C-26.59395622 96.88783053 -59.96276923 118.36105961 -95.24072266 132.28173828 C-97.43692226 133.17838264 -99.55767199 134.20673859 -101.6875 135.25 C-111.79765221 139.66724164 -121.86972337 140.27104525 -132.75 140.3125 C-134.32974609 140.32071777 -134.32974609 140.32071777 -135.94140625 140.32910156 C-152.09994937 140.18174378 -167.24993676 134.84479504 -182.26928711 129.27319336 C-184.19459954 128.55986964 -186.12338239 127.85661125 -188.05273438 127.15429688 C-194.68733916 124.72135266 -201.18802882 122.11372403 -207.5925293 119.1237793 C-209.70020511 118.13994077 -211.8177972 117.20156452 -213.95703125 116.2890625 C-237.00267117 106.38675578 -259.43046016 94.78501282 -281 82 C-281.74813965 81.55897949 -282.4962793 81.11795898 -283.26708984 80.66357422 C-295.5290842 73.36739098 -295.5290842 73.36739098 -299 67 C-300.33931479 61.12092988 -299.47259419 56.10448341 -296.4375 50.9375 C-295.31832302 49.2734254 -294.17090522 47.62809163 -293 46 C-292.35417969 45.06027344 -291.70835937 44.12054688 -291.04296875 43.15234375 C-289.38464437 40.75098197 -287.70380878 38.36920155 -286 36 C-284 39 -284 39 -282.73828125 41.26953125 C-271.10428846 62.01947456 -240.96985842 71.15253337 -220.39501953 80.86425781 C-218.35039737 81.83383807 -216.31233417 82.81511911 -214.27734375 83.8046875 C-196.42234612 92.37344641 -177.84100385 99.88306775 -159 106 C-157.34291016 106.55494141 -157.34291016 106.55494141 -155.65234375 107.12109375 C-138.59427757 111.22597599 -119.84544371 107.40923149 -104.83007812 98.7121582 C-95.00642457 92.62144393 -85.97995458 85.24946555 -77 78 C-76.1661377 77.32807617 -76.1661377 77.32807617 -75.31542969 76.64257812 C-72.19107319 74.11804961 -69.09449122 71.56095825 -66 69 C-64.22931882 67.56231259 -62.45848108 66.12481798 -60.6875 64.6875 C-47.35262086 53.80041627 -47.35262086 53.80041627 -34.91845703 41.91772461 C-33.11462286 40.1145791 -31.25674249 38.45462827 -29.31640625 36.80078125 C-24.80050919 32.87669781 -20.54357085 28.72728973 -16.3125 24.5 C-15.57966797 23.77941406 -14.84683594 23.05882812 -14.09179688 22.31640625 C-8.67769901 16.91695428 -3.38666657 11.58596459 -1.1875 4.0625 C-0.95417969 3.29035156 -0.72085937 2.51820313 -0.48046875 1.72265625 C-0.32191406 1.15417969 -0.16335938 0.58570313 0 0 Z " fill="#030303" transform="translate(399,136)"/>
<path d="M0 0 C3.39306259 1.66263682 6.54857488 3.55145249 9.75 5.5625 C16.67651676 9.86771827 23.75706451 13.8651185 30.88769531 17.8203125 C33.00350938 19.00195993 35.10802661 20.20181143 37.2109375 21.40625 C48.25980331 27.69878253 59.57966641 33.2865902 71.10498047 38.65185547 C72.98892965 39.52916761 74.8708832 40.41078229 76.75048828 41.29736328 C95.16764624 49.98293641 114.0573433 57.3834178 133.3125 64 C134.10470947 64.2786792 134.89691895 64.5573584 135.71313477 64.84448242 C147.57266381 68.8042646 159.40102058 69.28444938 171.8125 69.125 C173.19856112 69.11493373 174.58462946 69.10581442 175.97070312 69.09765625 C179.31399273 69.07435806 182.65689731 69.04164862 186 69 C184.92161119 72.32919487 183.83248587 75.57732683 182.3359375 78.7421875 C181.86655762 79.73907593 181.86655762 79.73907593 181.38769531 80.75610352 C181.05350586 81.45533936 180.71931641 82.1545752 180.375 82.875 C180.02018555 83.62257568 179.66537109 84.37015137 179.29980469 85.14038086 C175.64098233 92.81468797 171.82864706 100.40945688 168 108 C161.64405541 120.61492235 155.33926793 133.24757135 149.28588867 146.01098633 C146.75723885 151.34054672 144.19519754 156.65077094 141.5859375 161.94140625 C130.95396963 183.53686646 120.35539362 205.41192538 115 229 C114.63648438 230.54880859 114.63648438 230.54880859 114.265625 232.12890625 C110.48030195 250.92763899 113.42603948 268.96123045 122 286 C115.00292247 283.83270009 108.52545377 281.06630819 101.9375 277.875 C100.42458374 277.14531006 100.42458374 277.14531006 98.88110352 276.40087891 C90.38572297 272.2630223 82.10113354 267.86330894 74 263 C73.39897461 262.64228516 72.79794922 262.28457031 72.17871094 261.91601562 C44.5035827 245.29601948 22.9486103 218.51739341 12 188 C12.33 187.34 12.66 186.68 13 186 C13.804375 186.90878906 13.804375 186.90878906 14.625 187.8359375 C28.70688231 202.89058142 47.85432337 212.50955514 68.625 213.375 C85.69099619 213.02402836 101.20611449 206.2664628 113 194 C127.55010513 178.53683159 131.9798041 157.52264036 131.3828125 136.953125 C130.10224847 111.77675301 118.42846588 86.01310572 100.015625 68.67578125 C82.99164046 54.52211969 63.34260496 47.42878824 41.10839844 48.78857422 C27.90610194 50.11247287 14.86094696 57.24669619 6 67 C3.42192438 70.3717185 1.06891851 73.88465673 -1.25 77.4375 C-2.11625 78.7059375 -2.11625 78.7059375 -3 80 C-3.33 80 -3.66 80 -4 80 C-4.49007811 53.26351628 -2.54644164 26.60218823 0 0 Z " fill="#040404" transform="translate(97,215)"/>
<path d="M0 0 C7.94296449 6.2647391 14.85063626 13.23754679 20 22 C20.44601563 22.7528125 20.89203125 23.505625 21.3515625 24.28125 C22.72377199 26.80678894 23.87916506 29.3530771 25 32 C25.46792969 33.06863281 25.93585938 34.13726562 26.41796875 35.23828125 C32.10118986 50.31394061 33.1289353 70.33305575 27.1875 85.49609375 C26.795625 86.32238281 26.40375 87.14867187 26 88 C25.649375 88.79535156 25.29875 89.59070313 24.9375 90.41015625 C19.12605983 102.17428687 9.93667912 110.13302802 -2.3125 114.3125 C-8.38095385 116.04134441 -13.73095612 116.57825734 -20 116 C-20.87011719 115.92910156 -21.74023438 115.85820312 -22.63671875 115.78515625 C-38.05492996 113.78191421 -51.32471873 103.86438201 -61.25 92.375 C-66.19210192 85.79923029 -69.75294608 78.52734205 -73 71 C-73.27537598 70.36320312 -73.55075195 69.72640625 -73.83447266 69.0703125 C-79.37755809 55.66959938 -80.84280533 38.45679621 -76.11328125 24.58203125 C-69.23253701 8.6235332 -61.52687142 -2.23287973 -45 -9 C-29.56198444 -13.08577296 -12.9082217 -8.91451775 0 0 Z " fill="#FDFDFD" transform="translate(180,293)"/>
<path d="M0 0 C4.39107663 0.62137877 7.97879753 2.29864321 11.875 4.3125 C12.55844482 4.66006348 13.24188965 5.00762695 13.94604492 5.36572266 C16.30193011 6.56847361 18.65154354 7.7828094 21 9 C21.88671387 9.45906738 22.77342773 9.91813477 23.68701172 10.39111328 C36.82209256 17.20181138 49.912931 24.09760188 63 31 C60.85526125 38.24313157 57.81778141 44.45943199 54.0625 51 C53.48838379 52.00530762 52.91426758 53.01061523 52.32275391 54.04638672 C44.54389132 67.4678591 35.64583692 79.80986588 25.37866211 91.43212891 C24.39414718 92.55175966 23.41944232 93.68004786 22.45141602 94.81396484 C17.73865809 100.30274098 12.70319427 105.41315667 7.5625 110.5 C6.73556641 111.32242188 5.90863281 112.14484375 5.05664062 112.9921875 C3.04005041 114.99712113 1.02114764 116.99966253 -1 119 C-4.67958312 117.60032199 -8.11016985 115.95471817 -11.578125 114.09375 C-13.18494141 113.23172974 -13.18494141 113.23172974 -14.82421875 112.35229492 C-15.95472656 111.7410376 -17.08523438 111.12978027 -18.25 110.5 C-19.40628906 109.87649658 -20.56257813 109.25299316 -21.75390625 108.6105957 C-29.93999911 104.17323711 -38.01567412 99.58274411 -46 94.79296875 C-47.63869952 93.81358974 -49.29248265 92.85375868 -51 92 C-49.49570096 88.39781364 -47.40864357 86.3241674 -44.5625 83.6875 C-22.02027135 61.53505052 -8.31693066 29.98893267 0 0 Z " fill="#020202" transform="translate(334,337)"/>
<path d="M0 0 C1.95197036 0.69104003 3.90445019 1.38064259 5.85742188 2.06884766 C19.37950256 6.87521434 32.71170012 12.05725285 45.79345703 17.96728516 C48.46593821 19.17214362 51.15032877 20.34545132 53.83984375 21.51171875 C62.30955586 25.21146446 70.61695956 29.16312581 78.8125 33.4375 C79.58327881 33.83783447 80.35405762 34.23816895 81.14819336 34.65063477 C89.17926052 38.91976702 96.46185507 43.0730652 99.5 52.1875 C99.80859375 54.75390625 99.80859375 54.75390625 99.9375 57.75 C99.99808594 58.72066406 100.05867188 59.69132812 100.12109375 60.69140625 C98.16155055 71.72153935 88.79118121 79.41038457 81.125 86.875 C80.01474979 87.97372569 78.90536929 89.07333093 77.796875 90.17382812 C72.74266058 95.17108239 67.63121776 100.07046208 62.23046875 104.69555664 C60.0100083 106.60995193 57.87384214 108.60565658 55.7355957 110.61083984 C49.538778 116.4216391 43.1712843 121.92245882 36.5 127.1875 C35.86497559 127.68975098 35.22995117 128.19200195 34.57568359 128.70947266 C25.95650618 135.51281778 17.24589845 142.19343162 8.4375 148.75 C7.67695313 149.32129639 6.91640625 149.89259277 6.1328125 150.48120117 C-7.92501333 160.86608148 -24.04584963 166.5170782 -41.68115234 164.67724609 C-52.34792272 162.82400329 -62.52613408 158.25147619 -72.5 154.1875 C-73.67771973 153.7121582 -74.85543945 153.23681641 -76.06884766 152.74707031 C-88.46864541 147.71132201 -100.63370192 142.38112875 -112.5 136.1875 C-115.12007227 134.86509207 -117.74789217 133.55836076 -120.375 132.25 C-121.72789674 131.57167871 -123.08076129 130.89329322 -124.43359375 130.21484375 C-127.10547 128.87794567 -129.78507473 127.55892425 -132.47265625 126.25390625 C-139.6436696 122.75666907 -146.69465113 119.07982274 -153.625 115.125 C-154.32359131 114.73779785 -155.02218262 114.3505957 -155.74194336 113.95166016 C-161.55279711 110.56662848 -165.99787105 106.39659367 -168.875 100.25 C-170.43323875 92.61463011 -169.68859902 87.6739198 -165.5 81.1875 C-161.66007165 75.68072172 -156.64175231 71.73146768 -151.42578125 67.57421875 C-148.51925475 65.20320715 -145.75628692 62.73085488 -143 60.1875 C-138.5326395 56.0818434 -133.94177106 52.19041656 -129.21875 48.3828125 C-127.47699043 46.9763917 -125.74660378 45.55569621 -124.03125 44.1171875 C-115.93508354 37.34539395 -107.44558943 31.12793887 -98.90478516 24.93212891 C-97.36846711 23.81755746 -95.83408638 22.70030747 -94.30224609 21.57958984 C-63.25762156 -1.10381703 -37.81098884 -13.80825648 0 0 Z M-78.5 21.1875 C-79.77593556 22.0840387 -81.05341009 22.97838935 -82.33203125 23.87109375 C-101.94754303 37.5780999 -120.83799759 52.01623541 -138.5 68.1875 C-139.87107961 69.40027992 -141.24593534 70.60880772 -142.625 71.8125 C-143.57826172 72.64974609 -143.57826172 72.64974609 -144.55078125 73.50390625 C-145.90760246 74.67582998 -147.28148062 75.8281733 -148.66796875 76.96484375 C-153.43721747 80.93487411 -156.97329598 84.11387781 -157.80859375 90.57421875 C-158.01080445 94.67358106 -157.76172776 97.58076747 -156.125 101.375 C-133.94239665 125.14207502 -90.86271507 137.62323226 -61.25 149.3125 C-59.45526245 150.0230957 -59.45526245 150.0230957 -57.62426758 150.74804688 C-55.94627075 151.40256836 -55.94627075 151.40256836 -54.234375 152.0703125 C-52.75275879 152.64869873 -52.75275879 152.64869873 -51.24121094 153.23876953 C-45.51251328 155.22146628 -40.18403222 155.37033344 -34.1875 155.375 C-32.96256836 155.39336914 -32.96256836 155.39336914 -31.71289062 155.41210938 C-26.33592672 155.42496268 -21.6121959 154.86116432 -16.5 153.1875 C-15.71625 152.93266846 -14.9325 152.67783691 -14.125 152.4152832 C-7.44555284 150.00203426 -2.24594081 146.42418396 3.3125 142.0625 C4.18124756 141.39524902 5.04999512 140.72799805 5.94506836 140.04052734 C7.6774086 138.70830389 9.4061206 137.37134687 11.13085938 136.02929688 C13.17676291 134.43878819 15.23216181 132.86282179 17.296875 131.296875 C26.91803996 123.99077663 36.25540964 116.42173231 45.1875 108.28515625 C47.16384372 106.49242554 49.1645673 104.73954773 51.1875 103 C60.12267866 95.20202589 68.74376545 87.01314963 77.1875 78.6875 C78.11949219 77.7696875 79.05148437 76.851875 80.01171875 75.90625 C85.90649461 69.46549019 87.87184925 64.49834164 87.78125 55.9140625 C87.27225134 50.97960323 84.83981388 48.33727036 81.1953125 45.2097168 C78.55921134 43.23192459 76.00423986 41.74575629 73.0625 40.26953125 C72.01392822 39.74206299 70.96535645 39.21459473 69.88500977 38.67114258 C68.76795654 38.11966553 67.65090332 37.56818848 66.5 37 C65.335896 36.42338623 64.17179199 35.84677246 62.97241211 35.25268555 C44.93208933 26.39598875 26.45722076 19.1223913 7.56396484 12.29492188 C4.84843379 11.31343591 2.13668752 10.32228856 -0.57421875 9.328125 C-31.42155788 -1.90522166 -52.15188028 2.11543008 -78.5 21.1875 Z " fill="#090909" transform="translate(291.5,71.8125)"/>
<path d="M0 0 C1.27617187 0.38478516 1.27617187 0.38478516 2.578125 0.77734375 C24.51738922 8.07998455 38.91626576 23.86714737 49.171875 44.0703125 C55.16412245 56.48460477 57.19515862 68.37272071 57.25 82.0625 C57.270625 83.32255859 57.29125 84.58261719 57.3125 85.88085938 C57.35811349 96.91362157 55.80345504 106.9176451 50.375 116.625 C50.02800049 117.25470703 49.68100098 117.88441406 49.32348633 118.53320312 C42.15472888 131.07412525 31.50999557 140.1446986 17.5625 144.33984375 C-0.03293763 147.60040182 -16.30665669 144.18308494 -31.21630859 134.27490234 C-51.09119861 120.06922541 -64.0010073 98.5034221 -68.60449219 74.64648438 C-71.55035377 54.93466983 -68.30023734 36.04233637 -57.22265625 19.31640625 C-49.08162135 8.37845138 -37.76555421 1.26700365 -24.5 -1.8125 C-16.05876232 -2.26470916 -8.15299826 -2.45995637 0 0 Z M-46 23 C-46.46921875 23.46535156 -46.9384375 23.93070312 -47.421875 24.41015625 C-58.98019241 36.53447374 -60.69892932 52.51529969 -60.37109375 68.41796875 C-60.0011072 76.18505304 -58.04623806 82.8915075 -55 90 C-54.72124023 90.66725098 -54.44248047 91.33450195 -54.15527344 92.02197266 C-46.31783372 110.33103033 -34.09716757 123.20628043 -15.97265625 131.8125 C-11.36308796 133.65390442 -6.93004411 134.54470011 -2 135 C-1.11699219 135.0825 -0.23398438 135.165 0.67578125 135.25 C11.75717639 135.76317604 22.5525369 132.20290132 31 125 C41.70118647 115.15633765 47.75902882 102.40354664 48.37109375 87.875 C48.60682601 74.65961962 48.35397831 63.20933678 43 51 C42.55398437 49.93007813 42.10796875 48.86015625 41.6484375 47.7578125 C33.75385078 30.42500477 19.56702163 17.86164117 2 11 C-15.61546666 5.23090234 -33.55799797 9.21291667 -46 23 Z " fill="#080808" transform="translate(162,274)"/>
<path d="M0 0 C3.08599107 6.17198215 -2.55138336 19.78703195 -4.58203125 26.14453125 C-11.81612246 47.68461485 -21.14781238 67.91657864 -35 86 C-35.73089844 86.95648438 -36.46179688 87.91296875 -37.21484375 88.8984375 C-49.81007967 104.79622172 -64.79897629 117.91218063 -83 127 C-83.66 127 -84.32 127 -85 127 C-82.34037816 112.9765394 -76.6588386 100.5007155 -70 88 C-69.4738208 87.00564941 -69.4738208 87.00564941 -68.93701172 85.99121094 C-60.83807115 70.80245112 -51.07789655 56.94182344 -40.26708984 43.57128906 C-39.10154919 42.12592883 -37.95044997 40.66895432 -36.80078125 39.2109375 C-27.67550641 27.77482596 -17.43716422 17.23730363 -7 7 C-6.01962672 6.02204143 -5.04025271 5.04307858 -4.0625 4.0625 C-2.70833333 2.70833333 -1.35416667 1.35416667 0 0 Z " fill="#040404" transform="translate(328,317)"/>
<path d="M0 0 C0.66 0.66 1.32 1.32 2 2 C-0.31 4.64 -2.62 7.28 -5 10 C-5.66 9.67 -6.32 9.34 -7 9 C-4.69 6.03 -2.38 3.06 0 0 Z " fill="#E1E1E1" transform="translate(387,420)"/>
</svg>
